<?xml version="1.0" encoding="utf-8"?>
<?xml-stylesheet href="../css/graphic_animation.css" type="text/css"?>
<!-- Generator: Adobe Illustrator 16.0.0, SVG Export Plug-In . SVG Version: 6.00 Build 0)  -->
<!DOCTYPE svg PUBLIC "-//W3C//DTD SVG 1.1//EN" "http://www.w3.org/Graphics/SVG/1.1/DTD/svg11.dtd">


<svg version="1.1" xmlns="http://www.w3.org/2000/svg" xmlns:xlink="http://www.w3.org/1999/xlink" x="0px" y="0px" width="200px" height="200px" viewBox="0 0 400 400" preserveAspectRatio="xMidyMid meet" xml:space="preserve">
 
   
 <defs>
    
    <g id="mainFrame">
        <g id="mainBody">
            <path d="M329.501,144.663v110.675c0,3.521-0.93,6.979-2.695,10.024c-5.535,9.559-17.773,12.818-27.33,7.281
                L87.43,149.807c-3.021-1.75-5.532-4.261-7.282-7.283c-5.536-9.558-2.274-21.794,7.284-27.33l95.526-55.324
                c3.045-1.764,6.504-2.693,10.023-2.693c11.045,0,20,8.954,20,20v245.645c0,3.521-0.93,6.978-2.693,10.023
                c-5.535,9.559-17.771,12.819-27.33,7.284l-95.526-55.324c-3.021-1.75-5.532-4.261-7.282-7.281
                c-5.537-9.559-2.277-21.795,7.281-27.332l212.045-122.836c3.047-1.765,6.504-2.694,10.025-2.694
                C320.546,124.663,329.501,133.617,329.501,144.663z"/>
        </g>
        <g id="innerShield">
               <line  x1="70.5" y1="260" x2="70.5" y2="140"/>

               <line  x1="212.981" y1="57.518" x2="316.521" y2="117.482"/>

               <line x1="316.521" y1="282.518" x2="212.981" y2="342.482"/>
        </g>
    </g>

    <g id="rotateShield">
        <g>
            <line  x1="224.24" y1="33.21" x2="332.314" y2="95.803"/>

            <line  x1="44.5" y1="264" x2="44.5" y2="138"/>

            <line  x1="332.314" y1="304.198" x2="224.24" y2="366.79"/>
        </g>         
    </g>
   
 </defs> 
	
			<g class="beforeRotateShield">
                <a class="rotateShield" xlink:href="index.html" target="_top"> 
                    <use class="mainFrame" xlink:href="#mainFrame" x="0" y="0"/>
                    <use xlink:href="#rotateShield" >
                        
                       <animateTransform attributeName="transform"
                                    type="rotate"
                                    from="0 200 200" to="360 200 200"
                                    begin="0s" dur="20s"
                                    repeatCount="indefinite"
                          />
                    </use>
                   
                </a>
			</g>
		
	
</svg>
