<?xml version="1.0" encoding="utf-8"?>
<!-- Generator: Adobe Illustrator 16.0.0, SVG Export Plug-In . SVG Version: 6.00 Build 0)  -->
<!DOCTYPE svg PUBLIC "-//W3C//DTD SVG 1.1//EN" "http://www.w3.org/Graphics/SVG/1.1/DTD/svg11.dtd">
<svg version="1.1" xmlns="http://www.w3.org/2000/svg" xmlns:xlink="http://www.w3.org/1999/xlink" x="0px" y="0px" width="200px"
	 height="100px" viewBox="0 0 200 100" enable-background="new 0 0 200 100" xml:space="preserve">
<g id="index" display="none">
	<g display="inline">
		<path fill="#808080" d="M49.853,21.547v6.673h26.692v36.898h-7.851v-2.355H52.601c10.991,9.163,23.683,15.57,38.076,19.234
			l-3.925,9.42c-12.039-3.139-24.338-10.598-36.899-22.373V94.95h-7.851V70.613c-9.16,9.949-20.935,17.273-35.329,21.982
			l-3.925-8.242C18.45,79.384,30.88,72.183,40.04,62.763H23.161v3.533H15.31V28.22h26.692v-6.673H3.141v-7.459h38.861V5.06h7.458
			c2.093,0.262,2.225,1.047,0.393,2.355v6.673h38.076v7.459H49.853z M23.161,42.351h18.842V34.5H23.161V42.351z M23.161,56.483
			h18.842v-7.851H23.161V56.483z M49.853,42.351h18.842V34.5H49.853V42.351z M49.853,56.483h18.842v-7.851H49.853V56.483z"/>
	</g>
	<g display="inline">
		<path fill="#808080" d="M153.564,6.791c7.344,0,14.508,1.881,21.491,5.646c6.992,3.767,12.438,9.151,16.339,16.164
			c3.901,7.008,5.856,14.314,5.856,21.925c0,7.527-1.931,14.77-5.774,21.721s-9.225,12.348-16.159,16.188
			c-6.935,3.842-14.181,5.765-21.753,5.765c-7.564,0-14.818-1.923-21.744-5.765c-6.936-3.841-12.333-9.237-16.192-16.188
			c-3.861-6.951-5.799-14.193-5.799-21.721c0-7.61,1.963-14.917,5.889-21.925c3.917-7.013,9.371-12.397,16.354-16.164
			C139.073,8.672,146.237,6.791,153.564,6.791z M153.564,14.032c-6.133,0-12.112,1.574-17.926,4.719
			c-5.806,3.148-10.354,7.646-13.641,13.498c-3.279,5.851-4.923,11.943-4.923,18.277c0,6.293,1.618,12.327,4.841,18.102
			c3.223,5.773,7.729,10.271,13.526,13.493c5.789,3.227,11.833,4.837,18.122,4.837c6.297,0,12.349-1.61,18.139-4.837
			c5.789-3.222,10.288-7.72,13.493-13.493c3.206-5.774,4.809-11.809,4.809-18.102c0-6.334-1.636-12.427-4.891-18.277
			c-3.271-5.852-7.817-10.35-13.64-13.498C165.636,15.606,159.665,14.032,153.564,14.032z M167.582,57.592l7.131,2.086
			c-1.161,4.829-3.624,8.681-7.385,11.556c-3.771,2.878-8.334,4.313-13.698,4.313c-6.805,0-12.324-2.2-16.568-6.604
			c-4.252-4.399-6.378-10.501-6.378-18.303c0-5.099,0.964-9.527,2.903-13.293c1.929-3.766,4.685-6.604,8.25-8.517
			c3.573-1.91,7.655-2.867,12.251-2.867c5.136,0,9.404,1.227,12.807,3.68c3.394,2.449,5.708,5.782,6.951,9.989l-6.895,1.681
			c-1.161-2.858-2.87-5.05-5.128-6.574c-2.257-1.525-4.914-2.286-7.964-2.286c-4.44,0-8.098,1.582-10.976,4.747
			c-2.879,3.169-4.317,7.703-4.317,13.612c0,5.908,1.357,10.382,4.089,13.411c2.715,3.03,6.239,4.547,10.565,4.547
			c3.477,0,6.525-1.006,9.15-3.013C164.997,63.75,166.739,61.03,167.582,57.592z"/>
	</g>
</g>
<g id="architecture" display="none">
	<g display="inline">
		<path fill="#808080" d="M94.677,84.623l-2.352,7.45H49.192c-10.458,0-18.957-3.137-25.488-9.41
			c-4.969,6.273-9.938,10.845-14.9,13.724l-5.098-7.842c5.49-2.874,10.453-6.924,14.9-12.156
			c-4.969-8.363-8.234-15.293-9.803-20.782l6.666-1.569c1.305,4.185,3.658,9.154,7.058,14.901c2.353-6.531,3.529-12.94,3.529-19.214
			v-3.529h-8.235l-3.529,5.098l-7.451-3.137c5.747-9.668,10.979-19.343,15.685-29.017H6.45v-7.45h17.646l1.569-1.961l7.842,5.882
			c0.521,0.527,0,1.048-1.568,1.569L21.351,38.745h12.548v5.882c0,12.811-2.095,23.398-6.274,31.762
			c5.226,5.49,13.461,8.234,24.704,8.234H94.677z M57.818,27.766v-6.667h-18.43v-6.274h18.43V5.022h6.274
			c2.089,0.263,2.218,1.047,0.393,2.353v7.45h20.39v12.94h7.843v6.274h-7.843v13.332h-20.39v5.49h21.566v6.274H64.485v7.45h26.272
			v6.274H64.485v8.626h-6.667V72.86H34.683v-6.274h23.135v-7.45H39.781v-6.274h18.038v-5.49h-18.43v-6.274h18.43V34.04H32.331
			v-6.274H57.818z M78.209,21.099H64.485v6.667h13.724V21.099z M78.209,34.04H64.485v7.058h13.724V34.04z"/>
		<path fill="#808080" d="M105.266,24.236c8.1-6.274,13.461-12.94,16.076-19.999l7.844,1.177c1.824,0.527,1.568,1.176-0.785,1.96
			l-3.137,5.098h23.92v6.274h-14.9c1.305,1.832,2.48,4.185,3.527,7.058l-7.842,2.353c-0.783-3.395-2.225-6.531-4.313-9.411h-3.922
			c-3.137,4.448-7.059,8.234-11.764,11.372L105.266,24.236z M192.316,93.25c-13.332-1.568-26.143-6.924-38.428-16.077v17.646h-7.842
			V77.957c-8.627,7.059-20.918,12.413-36.861,16.077l-2.352-8.234c17.773-4.179,30.322-9.411,37.643-15.685h-34.113v-6.274h35.684
			v-5.49l-3.529,1.176l-2.746-7.058c8.1-1.568,12.156-5.49,12.156-11.764V28.55l-3.137,3.137l-5.49-5.882
			c6.012-4.178,10.195-11.629,12.549-22.351l8.234,0.784c1.041,1.048,0.648,1.704-1.176,1.961l-1.961,6.274h29.801v6.274h-17.254
			c1.043,1.832,2.09,3.792,3.137,5.882l-7.842,1.96c-0.783-2.61-1.961-5.226-3.529-7.842h-6.666
			c-1.832,3.664-3.922,6.801-6.273,9.411h28.232v18.43c0,1.832,0.912,2.745,2.744,2.745h1.961c1.043,0,1.826-1.305,2.354-3.921
			l0.783-4.313l6.666,1.96c-0.783,8.37-3.271,12.548-7.449,12.548h-6.666c-4.705,0-7.059-2.353-7.059-7.059V34.432h-15.293v9.019
			l4.314-4.313c3.92,2.879,6.922,5.882,9.018,9.019l-5.098,5.098c-2.879-3.658-5.625-6.795-8.234-9.411
			c-0.527,6.017-4.313,10.587-11.371,13.725h6.273c2.09,0.263,2.219,1.048,0.393,2.353v3.921h35.684v6.274h-34.115
			c9.668,7.322,22.48,12.027,38.428,14.117L192.316,93.25z M143.693,37.176h-12.549v9.019l13.332-3.137l1.178,5.49
			c-11.244,3.4-22.094,6.274-32.547,8.627c-1.047,2.095-1.832,2.095-2.352,0l-2.746-7.058l15.293-2.353V37.176h-10.588v-6.274
			h30.979V37.176z"/>
	</g>
</g>
<g id="art_x26_design">
	<g>
		<path fill="#808080" d="M124.521,21.55V29h-16.805v-7.45H124.521z M122.912,93.701h-3.04v-2.354h-7.33v3.922h-3.038V63.507h13.408
			V93.701z M122.018,7.434v7.45h-11.799v-7.45H122.018z M122.018,35.274v7.45h-11.799v-7.45H122.018z M122.018,48.999v7.451h-11.799
			v-7.451H122.018z M119.872,69.781h-7.33v15.293h7.33V69.781z M127.917,8.61h13.229v21.959c0,2.096,0.416,3.137,1.251,3.137h1.252
			c0.952,0,1.431-2.481,1.431-7.451l3.574,1.961c-0.119,8.626-1.491,12.94-4.111,12.94h-3.754c-2.146,0-3.218-2.218-3.218-6.666
			v-18.43h-6.078v9.411c0,9.674-1.967,16.861-5.899,21.567l-1.968-6.274c2.861-2.353,4.291-7.708,4.291-16.077V8.61z
			 M125.594,55.665v-7.451h16.446l0.537-1.176l2.682,4.313c0.595,1.311,0.475,1.832-0.358,1.568
			c-1.787,9.411-3.933,17.253-6.436,23.527c1.668,2.88,5.124,6.018,10.368,9.41l-1.071,8.236c-5.246-3.922-9.18-7.973-11.8-12.156
			c-3.338,5.746-6.794,10.061-10.368,12.939l-1.788-7.449c3.575-2.09,6.794-5.619,9.653-10.588
			c-1.788-4.963-3.457-12.021-5.005-21.174H125.594z M140.61,55.665h-8.76c0.953,6.274,2.324,11.764,4.111,16.469
			C137.987,66.908,139.538,61.418,140.61,55.665z"/>
		<path fill="#808080" d="M153.304,22.334h18.949v7.45h-18.949V22.334z M170.107,92.133h-3.574v-3.922h-7.33v5.49h-3.576V61.547
			h14.48V92.133z M169.036,8.218v7.451H156.7V8.218H169.036z M156.7,35.274h12.336v7.45H156.7V35.274z M169.036,48.214v7.451H156.7
			v-7.451H169.036z M159.203,67.821v14.117h7.33V67.821H159.203z M181.192,37.235V5.865h3.396c1.19,0.527,1.252,1.44,0.18,2.745
			v28.625h9.117v7.451h-9.117v48.623h-3.575V44.686h-9.654v-7.451H181.192z"/>
	</g>
	<g>
		<path fill="#808080" d="M15.006,35.505V29.89H8.582l-0.359-2.807h6.783V21.28l2.291,0.936c0.719,0.188,1.033,0.749,1.033,1.498
			c0,0.655-0.225,1.217-0.584,1.404c-0.539,0.374-0.539,1.216-0.539,1.965h2.83l2.201-4.305l1.977,3.744
			c0.225,0.374,0.314,0.842,0.314,1.404c0,0.842-0.359,1.965-0.943,1.965h-6.379v5.615h3.773l2.471-5.054l2.336,4.492
			c0.225,0.374,0.314,0.842,0.314,1.404c0,0.842-0.359,1.965-0.943,1.965h-4.762v4.867l0.09,0.655l0.27,0.281h4.088
			c0.314,0,0.539-0.749,0.629-2.059l0.18-3.182l0.27-0.468l0.27,0.468l-0.09,2.901c0,1.216,0.135,2.059,0.359,2.433
			c0.18,0.187,0.27,0.749,0.27,1.591c0,1.497-0.674,2.152-1.303,2.152h-5.84c-0.854-1.029-1.078-1.31-1.078-3.369v-6.27h-4.537
			l-0.584,3.837c-0.719,3.369-1.977,5.521-3.773,6.925l-2.471,1.685c-0.314,0.093-0.539-0.188-0.539-0.749s0.09-1.029,0.359-1.123
			l1.887-1.685c1.213-1.498,2.201-4.024,2.605-6.083l0.314-2.808h-5.48l-0.359-2.807H15.006z M19.184,13.513V7.056l2.336,0.655
			c0.764,0.187,1.123,0.562,1.123,1.404c0,1.684-0.539,1.872-0.629,1.872c-0.584,0.187-0.584,0.374-0.584,2.526h9.883V7.056
			l2.336,0.655c0.719,0.187,1.078,0.562,1.078,1.404c0,1.684-0.539,1.872-0.629,1.872c-0.539,0.187-0.539,0.374-0.539,2.526h7.367
			l2.83-4.959l2.875,4.492c0.225,0.281,0.359,0.842,0.359,1.498c0,1.216-0.449,1.778-1.033,1.778H33.559v5.896
			c0,0.655-0.225,1.123-0.584,1.311c-1.438,0.468-1.662,0.562-1.662-1.217V16.32H21.43v5.521c0,0.655-0.225,1.123-0.584,1.31
			c-1.393,0.562-1.662,0.749-1.662-1.216V16.32H6.471l-0.359-2.808H19.184z M39.848,75.651l2.875-4.96l2.83,4.492
			c0.225,0.281,0.359,0.842,0.359,1.497c0,1.217-0.449,1.778-0.988,1.778H22.598l-1.527,4.679l-1.617,3.65l3.908-0.375l11.275-2.246
			c-0.629-0.936-1.213-1.684-1.752-1.965c-0.18-0.188-0.314-0.374-0.314-0.655c0-0.655,0.18-1.029,0.449-1.029
			c1.438,0,6.199,5.615,7.367,10.014l0.27,2.526c0,1.217-0.584,1.872-1.033,1.872c-0.314,0-0.764-0.468-0.943-1.123
			c-0.898-2.995-1.797-5.521-2.74-7.394c-3.369,1.778-7.053,3.089-10.961,3.743l-10.961,1.685c-0.225,0-0.314,0.562-0.314,1.404
			c0,0.842-0.27,1.217-0.719,1.217c-0.494,0-0.854-0.843-0.943-2.34l-0.584-5.428l6.559,0.187l1.078-3.649l0.988-4.772H6.65
			l-0.359-2.808H39.848z M23.99,58.807c0.27-0.187,0.719-0.094,0.719,1.029c0,0.375-0.09,0.655-0.27,0.749
			c-5.885,4.398-13.117,5.989-15.139,6.27c-0.18,0-0.314,0.468-0.359,1.31c-0.045,0.749-0.27,1.216-0.629,1.216
			s-0.584-0.468-0.629-1.404l-0.719-5.989l1.572,0.562c0.449,0.094,0.988,0.094,1.572,0.094c1.123,0,4.133-0.281,4.896-0.562v-6.645
			H8.762L8.402,52.63h6.604v-7.206l2.291,0.936c0.719,0.187,1.033,0.749,1.033,1.404c0,0.749-0.225,1.31-0.584,1.497
			c-0.539,0.375-0.539,0.749-0.539,3.369h2.65l2.201-4.305l1.977,3.743c0.225,0.374,0.314,0.936,0.314,1.497
			c0,0.842-0.314,1.872-0.943,1.872h-6.199v5.896L23.99,58.807z M32.301,67.604l2.875-4.866l2.83,4.398
			c0.225,0.28,0.359,0.842,0.359,1.497c0,1.217-0.449,1.872-0.988,1.872H15.41l-0.314-2.901H32.301z M45.912,57.31
			c-0.09,1.029-0.135,1.778-0.135,2.433c0,0.374,0,0.749,0.045,0.936c0.359,0.749,0.584,1.591,0.584,2.34
			c0,1.497-0.674,2.059-0.988,2.059c-0.359,0-0.988-0.562-1.842-1.685c-3.324-4.398-3.773-22.272-3.908-27.981h-4.357
			c-0.09,3.743-0.27,7.393-0.854,10.949c3.01,4.866,3.953,8.703,4.178,9.826l0.135,2.526c0,1.778-1.707,2.246-2.021,0.281
			c-0.898-3.649-1.887-6.738-2.875-9.265l-0.943,3.556c-2.561,7.674-7.502,10.855-7.682,10.855c-0.225,0-0.404-0.28-0.404-0.936
			c0-0.187,0.045-0.468,0.18-0.562c5.166-4.96,6.873-13.008,7.232-16.471c-1.033-2.059-2.021-3.462-2.92-4.211
			c-0.18-0.094-0.27-0.375-0.27-0.655c0-0.187,0-0.936,0.404-0.936c0.629,0,2.291,2.059,3.055,2.995l0.404-4.492l0.09-3.462h-5.076
			l-0.314-2.901h5.436v-2.059l-0.09-5.147l2.92,0.936c0.629,0.093,0.988,0.655,0.988,1.497s-0.225,1.404-0.674,1.591
			c-0.629,0.188-0.629,0.281-0.764,3.182h4.223l1.168-3.182l2.066,3.182c0.225,0.281,0.314,0.655,0.314,1.123
			c0,0.842-0.314,1.591-0.719,1.872c-0.359,0.187-0.539,0.749-0.539,1.404l0.135,9.639c0.135,2.246,0.359,4.305,0.629,5.708
			l0.629,3.275l0.449,1.029l0.539-1.403l1.213-4.867c0.045-0.374,0.225-0.562,0.404-0.562c0.27,0,0.674,0.375,0.584,1.404
			L45.912,57.31z"/>
		<path fill="#808080" d="M55.52,49.729c-1.797,4.679-4.357,9.452-4.852,9.452c-0.18,0-0.359-0.188-0.359-0.655
			c0-0.281,0.09-0.655,0.225-0.936c2.021-4.398,3.773-9.171,5.121-14.225c1.797-6.738,2.695-10.575,3.1-16.096l2.516,1.685
			c0.539,0.374,0.764,0.842,0.764,1.497c0,1.217-0.539,1.217-0.988,1.217c-0.225,0-0.359,0.093-0.404,0.187
			c-0.809,3.837-1.842,7.674-2.875,11.324V92.31c0,0.561-0.18,1.029-0.539,1.31c-1.393,0.843-1.707,1.029-1.707-1.31V49.729z
			 M60.461,11.267c0.449,0.468,0.674,0.936,0.674,1.404c0,0.093-0.09,1.216-0.584,1.216c-0.045,0-0.449-0.187-0.539-0.187
			c-0.135,0-0.27,0.093-0.314,0.281c-4.357,14.037-8.4,17.125-8.535,17.125c-0.18,0-0.314-0.187-0.314-0.655
			c0-0.374,0.09-0.749,0.225-1.029c2.561-4.398,5.66-11.698,7.098-20.682L60.461,11.267z M63.201,40.933l2.74,0.562
			c0.629,0.187,0.988,0.655,0.988,1.404c0,0.655-0.18,1.31-0.584,1.591c-0.359,0.374-0.584,0.749-0.584,1.029
			c-0.09,7.486-0.629,14.225-1.527,19.933c-1.303,8.235-3.594,14.505-4.043,14.505c-0.18,0-0.449-0.374-0.449-0.936
			c0-0.187,0-0.375,0.045-0.562c2.83-9.358,3.818-20.027,3.729-33.222L63.201,40.933z M69.041,28.112V7.711l2.471,0.655
			c0.719,0.188,1.078,0.749,1.078,1.498s-0.225,1.497-0.674,1.872s-0.629,0.936-0.629,1.591v14.786h3.863l2.516-4.96l2.336,4.492
			c0.225,0.281,0.314,0.842,0.314,1.403c0,0.936-0.359,1.965-0.943,1.965h-8.086v61.016c0,1.685-1.393,2.059-1.842,2.059
			c-0.225,0-0.404-0.187-0.404-0.748V31.013h-5.705l-0.359-2.901H69.041z M73.443,12.671c0-0.468,0.18-0.749,0.404-0.749
			c0.809,0,1.977,1.685,2.471,2.433c1.527,2.34,1.617,3.556,1.617,4.773c0,0.187,0,2.433-1.033,2.433
			c-0.809,0-1.033-1.31-1.033-1.404c-0.449-2.62-1.213-5.521-2.156-6.738C73.533,13.326,73.443,13.045,73.443,12.671z
			 M74.117,40.652l2.785,1.404c0.314,0.187,0.494,0.655,0.494,1.123c0,0.936-0.18,1.31-0.539,1.31c-0.314,0-0.494,0.281-0.494,0.655
			v26.109c0,0.655,0.09,0.655,0.764,1.03h1.393c0.898,0,1.168-0.842,1.348-4.398l0.18-4.305c0-0.562,0.135-0.842,0.359-0.842
			s0.359,0.281,0.359,1.029l0.225,4.492c0.09,1.872,0.359,3.182,0.719,3.744c0.27,0.468,0.404,1.123,0.404,1.872
			c0,1.123-0.404,2.995-1.033,2.995h-5.75c-0.539,0-1.213-1.498-1.213-3.743V40.652z M87.055,85.759c0,3.088-1.033,6.27-4.133,7.954
			c0-0.749-0.135-1.778-0.404-2.901c-0.314-1.029-1.527-2.433-3.459-3.931c-0.18-0.093-0.27-0.468-0.27-0.748
			c0-0.374,0.135-0.562,0.404-0.562c2.246,0.655,3.773,0.936,4.627,0.936c0.764,0,0.898-0.187,0.988-1.778V39.435h-6.02
			l-0.359-2.901h8.85l2.516-4.96l2.291,4.398c0.225,0.375,0.314,0.936,0.314,1.497c0,0.749-0.27,1.965-0.898,1.965h-4.447V85.759z
			 M86.561,13.139l2.516-4.96l2.336,4.398c0.225,0.375,0.314,0.936,0.314,1.497c0,0.936-0.359,1.965-0.943,1.965h-11.32
			l-0.359-2.901H86.561z"/>
	</g>
	<rect x="97" y="1.805" fill="#808080" width="5" height="97"/>
</g>
<g id="photography" display="none">
	<g display="inline">
		<path fill="#808080" d="M18.606,94.484h-7.842l-1.568-7.449h5.49c1.042,0,1.568-0.527,1.568-1.568V58.41l-7.058,2.745
			c-1.048,2.879-2.096,3.271-3.137,1.176l-2.353-7.843l12.548-4.313v-18.43H5.666v-7.45h10.587V5.081h7.45
			c2.089,0.263,2.218,1.047,0.392,2.353v16.861h10.979v7.45H24.096V47.43l7.843-3.137v4.705h60.387v6.274h-5.489v24.312l6.666-1.176
			v5.49l-6.666,1.176v9.02h-6.667v-8.236l-17.253,2.354c-1.047,2.354-1.96,2.219-2.745-0.393l-1.568-5.881l5.097-0.393V55.273
			h-6.666v39.604h-6.666v-9.02l-18.038,2.354c-1.568,2.354-2.616,2.219-3.137-0.393l-1.176-5.881l5.882-0.393V55.273h-2.745v-3.529
			l-7.059,3.529v32.938C24.096,92.391,22.264,94.484,18.606,94.484z M33.507,44.293l-1.176-5.882l10.587-0.393V12.923h-8.235V6.649
			h54.113v6.274H78.209v23.527l12.94-0.784v5.49l-12.94,0.784v4.706h-7.842v-4.313L35.86,44.293
			C34.548,45.862,33.764,45.862,33.507,44.293z M50.368,60.37v-5.097h-9.803v5.097H50.368z M50.368,70.565v-5.49h-9.803v5.49H50.368
			z M50.368,80.369v-5.098h-9.803v5.881L50.368,80.369z M70.367,17.629v-4.706H50.76v4.706H70.367z M70.367,27.432v-5.098H50.76
			v5.098H70.367z M70.367,36.843v-4.706H50.76v5.49L70.367,36.843z M80.169,60.37v-5.097h-9.803v5.097H80.169z M80.169,70.565v-5.49
			h-9.803v5.49H80.169z M80.169,80.369v-5.098h-9.803v5.881L80.169,80.369z"/>
		<path fill="#808080" d="M111.539,34.882V8.218h41.174v26.665h-16.471v6.274h23.137v6.274h-54.506v-6.274H128.4v-6.274h-8.627
			H111.539z M105.266,85.857c5.227-3.656,9.275-7.97,12.156-12.939l7.057,4.705c0.785,0.785,0,1.569-2.352,2.353
			c-2.354,3.922-6.146,7.842-11.371,11.764L105.266,85.857z M111.146,70.958V52.136h41.957v18.822h-16.469v18.039
			c0,4.178-2.096,6.273-6.273,6.273h-7.451l-1.176-7.451h5.49c1.041,0,1.568-0.525,1.568-1.568V70.958h-9.02H111.146z
			 M118.99,64.684h26.271V58.41H118.99V64.684z M119.381,12.923v6.274h25.488v-6.274H119.381z M119.381,23.903v6.274h25.488v-6.274
			H119.381z M144.869,73.311c3.922,2.353,7.059,4.84,9.412,7.45l-4.707,6.667c-2.094-3.139-5.098-6.012-9.018-8.627L144.869,73.311z
			 M154.281,87.035c16.205-7.58,27.969-16.47,35.291-26.665l6.666,6.667c0.258,1.311-0.527,1.703-2.354,1.176
			c-7.584,9.938-19.086,18.688-34.506,26.271L154.281,87.035z M155.85,26.647c10.195-4.442,18.949-10.844,26.271-19.214l6.666,6.666
			c0.521,1.312-0.393,1.704-2.744,1.176c-6.537,7.059-14.9,13.204-25.096,18.43L155.85,26.647z M192.709,39.588
			c0.258,1.311-0.527,1.703-2.354,1.176c-5.752,7.058-15.035,13.859-27.84,20.391l-5.098-7.059
			c13.332-6.531,23-13.461,29.018-20.782L192.709,39.588z"/>
	</g>
</g>
<g id="travel" display="none">
	<g display="inline">
		<path fill="#808080" d="M41.349,22.334v7.45H23.312v11.764h16.861v47.448c0,3.656-1.832,5.488-5.49,5.488h-9.411l-1.569-7.449
			h7.059c1.042,0,1.568-0.527,1.568-1.568V48.999h-9.019v10.587c0,11.764-3.921,23.662-11.764,35.684l-7.45-6.273
			c7.579-9.412,11.372-22.352,11.372-38.821V29.785H4.882v-7.45h13.724V5.473h7.451c2.089,0.263,2.218,1.047,0.392,2.353v14.509
			H41.349z M38.604,36.843c6.274-7.579,10.845-18.43,13.724-32.546l8.627,2.353c1.042,1.048,0.649,1.703-1.176,1.96L56.25,20.374
			h36.468v7.451H53.897c-3.4,7.321-6.93,12.811-10.587,16.469L38.604,36.843z M71.543,43.509c0,1.832,0.913,6.667,2.745,14.509
			L86.051,45.47l6.667,6.274c0.257,1.311-0.393,1.703-1.961,1.176L76.641,65.468c2.61,7.585,8.363,14.509,17.253,20.782
			l-5.882,7.844c-13.596-9.932-21.31-25.881-23.135-47.84l-3.921,1.568v47.055h-7.842v-44.31l-7.451,2.745l-3.137-7.058
			c14.637-4.442,27.056-9.932,37.251-16.469l6.666,5.882c0.257,1.311-0.392,1.703-1.96,1.176L71.543,43.509z"/>
		<path fill="#808080" d="M129.186,94.484h-7.844V52.92c-2.615,2.88-6.537,6.017-11.764,9.411l-5.098-7.843
			c11.236-6.794,20.783-16.334,28.625-28.625l6.275,5.098c1.305,1.569,1.041,2.224-0.785,1.961
			c-3.137,4.185-6.273,8.234-9.41,12.156V94.484z M112.324,34.882l-4.707-7.058c7.316-4.179,14.639-11.108,21.959-20.783
			l5.883,5.098c1.305,1.568,1.041,2.224-0.785,1.96C126.568,24.038,119.117,30.961,112.324,34.882z M139.771,44.686v-7.451h54.506
			v7.451h-16.469v39.996c0,5.49-2.225,8.234-6.666,8.234h-10.588l-1.568-7.449h9.41c1.043,0,1.568-0.521,1.568-1.568V44.686H139.771
			z M186.436,12.139v7.45h-42.35v-7.45H186.436z"/>
	</g>
</g>
</svg>
