<?xml version="1.0" encoding="utf-8"?>
<!-- Generator: Adobe Illustrator 16.0.0, SVG Export Plug-In . SVG Version: 6.00 Build 0)  -->
<!DOCTYPE svg PUBLIC "-//W3C//DTD SVG 1.1//EN" "http://www.w3.org/Graphics/SVG/1.1/DTD/svg11.dtd">
<svg version="1.1" xmlns="http://www.w3.org/2000/svg" xmlns:xlink="http://www.w3.org/1999/xlink" x="0px" y="0px" width="200px"
	 height="100px" viewBox="0 0 200 100" enable-background="new 0 0 200 100" xml:space="preserve">
<g id="index" display="none">
	<g display="inline">
		<path fill="#808080" d="M49.853,21.547v6.673h26.692v36.898h-7.851v-2.355H52.601c10.991,9.163,23.683,15.57,38.076,19.234
			l-3.925,9.42c-12.039-3.139-24.338-10.598-36.899-22.373V94.95h-7.851V70.613c-9.16,9.949-20.935,17.273-35.329,21.982
			l-3.925-8.242C18.45,79.384,30.88,72.183,40.04,62.763H23.161v3.533H15.31V28.22h26.692v-6.673H3.141v-7.459h38.861V5.06h7.458
			c2.093,0.262,2.225,1.047,0.393,2.355v6.673h38.076v7.459H49.853z M23.161,42.351h18.842V34.5H23.161V42.351z M23.161,56.483
			h18.842v-7.851H23.161V56.483z M49.853,42.351h18.842V34.5H49.853V42.351z M49.853,56.483h18.842v-7.851H49.853V56.483z"/>
	</g>
	<g display="inline">
		<path fill="#808080" d="M153.564,6.791c7.344,0,14.508,1.881,21.491,5.646c6.992,3.767,12.438,9.151,16.339,16.164
			c3.901,7.008,5.856,14.314,5.856,21.925c0,7.527-1.931,14.77-5.774,21.721s-9.225,12.348-16.159,16.188
			c-6.935,3.842-14.181,5.765-21.753,5.765c-7.564,0-14.818-1.923-21.744-5.765c-6.936-3.841-12.333-9.237-16.192-16.188
			c-3.861-6.951-5.799-14.193-5.799-21.721c0-7.61,1.963-14.917,5.889-21.925c3.917-7.013,9.371-12.397,16.354-16.164
			C139.073,8.672,146.237,6.791,153.564,6.791z M153.564,14.032c-6.133,0-12.112,1.574-17.926,4.719
			c-5.806,3.148-10.354,7.646-13.641,13.498c-3.279,5.851-4.923,11.943-4.923,18.277c0,6.293,1.618,12.327,4.841,18.102
			c3.223,5.773,7.729,10.271,13.526,13.493c5.789,3.227,11.833,4.837,18.122,4.837c6.297,0,12.349-1.61,18.139-4.837
			c5.789-3.222,10.288-7.72,13.493-13.493c3.206-5.774,4.809-11.809,4.809-18.102c0-6.334-1.636-12.427-4.891-18.277
			c-3.271-5.852-7.817-10.35-13.64-13.498C165.636,15.606,159.665,14.032,153.564,14.032z M167.582,57.592l7.131,2.086
			c-1.161,4.829-3.624,8.681-7.385,11.556c-3.771,2.878-8.334,4.313-13.698,4.313c-6.805,0-12.324-2.2-16.568-6.604
			c-4.252-4.399-6.378-10.501-6.378-18.303c0-5.099,0.964-9.527,2.903-13.293c1.929-3.766,4.685-6.604,8.25-8.517
			c3.573-1.91,7.655-2.867,12.251-2.867c5.136,0,9.404,1.227,12.807,3.68c3.394,2.449,5.708,5.782,6.951,9.989l-6.895,1.681
			c-1.161-2.858-2.87-5.05-5.128-6.574c-2.257-1.525-4.914-2.286-7.964-2.286c-4.44,0-8.098,1.582-10.976,4.747
			c-2.879,3.169-4.317,7.703-4.317,13.612c0,5.908,1.357,10.382,4.089,13.411c2.715,3.03,6.239,4.547,10.565,4.547
			c3.477,0,6.525-1.006,9.15-3.013C164.997,63.75,166.739,61.03,167.582,57.592z"/>
	</g>
</g>
<g id="architecture" display="none">
	<g display="inline">
		<path fill="#808080" d="M94.677,84.623l-2.352,7.45H49.192c-10.458,0-18.957-3.137-25.488-9.41
			c-4.969,6.273-9.938,10.845-14.9,13.724l-5.098-7.842c5.49-2.874,10.453-6.924,14.9-12.156
			c-4.969-8.363-8.234-15.293-9.803-20.782l6.666-1.569c1.305,4.185,3.658,9.154,7.058,14.901c2.353-6.531,3.529-12.94,3.529-19.214
			v-3.529h-8.235l-3.529,5.098l-7.451-3.137c5.747-9.668,10.979-19.343,15.685-29.017H6.45v-7.45h17.646l1.569-1.961l7.842,5.882
			c0.521,0.527,0,1.048-1.568,1.569L21.351,38.745h12.548v5.882c0,12.811-2.095,23.398-6.274,31.762
			c5.226,5.49,13.461,8.234,24.704,8.234H94.677z M57.818,27.766v-6.667h-18.43v-6.274h18.43V5.022h6.274
			c2.089,0.263,2.218,1.047,0.393,2.353v7.45h20.39v12.94h7.843v6.274h-7.843v13.332h-20.39v5.49h21.566v6.274H64.485v7.45h26.272
			v6.274H64.485v8.626h-6.667V72.86H34.683v-6.274h23.135v-7.45H39.781v-6.274h18.038v-5.49h-18.43v-6.274h18.43V34.04H32.331
			v-6.274H57.818z M78.209,21.099H64.485v6.667h13.724V21.099z M78.209,34.04H64.485v7.058h13.724V34.04z"/>
		<path fill="#808080" d="M105.266,24.236c8.1-6.274,13.461-12.94,16.076-19.999l7.844,1.177c1.824,0.527,1.568,1.176-0.785,1.96
			l-3.137,5.098h23.92v6.274h-14.9c1.305,1.832,2.48,4.185,3.527,7.058l-7.842,2.353c-0.783-3.395-2.225-6.531-4.313-9.411h-3.922
			c-3.137,4.448-7.059,8.234-11.764,11.372L105.266,24.236z M192.316,93.25c-13.332-1.568-26.143-6.924-38.428-16.077v17.646h-7.842
			V77.957c-8.627,7.059-20.918,12.413-36.861,16.077l-2.352-8.234c17.773-4.179,30.322-9.411,37.643-15.685h-34.113v-6.274h35.684
			v-5.49l-3.529,1.176l-2.746-7.058c8.1-1.568,12.156-5.49,12.156-11.764V28.55l-3.137,3.137l-5.49-5.882
			c6.012-4.178,10.195-11.629,12.549-22.351l8.234,0.784c1.041,1.048,0.648,1.704-1.176,1.961l-1.961,6.274h29.801v6.274h-17.254
			c1.043,1.832,2.09,3.792,3.137,5.882l-7.842,1.96c-0.783-2.61-1.961-5.226-3.529-7.842h-6.666
			c-1.832,3.664-3.922,6.801-6.273,9.411h28.232v18.43c0,1.832,0.912,2.745,2.744,2.745h1.961c1.043,0,1.826-1.305,2.354-3.921
			l0.783-4.313l6.666,1.96c-0.783,8.37-3.271,12.548-7.449,12.548h-6.666c-4.705,0-7.059-2.353-7.059-7.059V34.432h-15.293v9.019
			l4.314-4.313c3.92,2.879,6.922,5.882,9.018,9.019l-5.098,5.098c-2.879-3.658-5.625-6.795-8.234-9.411
			c-0.527,6.017-4.313,10.587-11.371,13.725h6.273c2.09,0.263,2.219,1.048,0.393,2.353v3.921h35.684v6.274h-34.115
			c9.668,7.322,22.48,12.027,38.428,14.117L192.316,93.25z M143.693,37.176h-12.549v9.019l13.332-3.137l1.178,5.49
			c-11.244,3.4-22.094,6.274-32.547,8.627c-1.047,2.095-1.832,2.095-2.352,0l-2.746-7.058l15.293-2.353V37.176h-10.588v-6.274
			h30.979V37.176z"/>
	</g>
</g>
<g id="art_x26_design" display="none">
	<g display="inline">
		<text transform="matrix(1 0 0 1 -1 86.25)" fill="#808080" font-family="'MS-UIGothic'" font-size="100.3837">建築</text>
	</g>
</g>
<g id="photography">
	<g>
		<path fill="#808080" d="M18.606,94.484h-7.842l-1.568-7.449h5.49c1.042,0,1.568-0.527,1.568-1.568V58.41l-7.058,2.745
			c-1.048,2.879-2.096,3.271-3.137,1.176l-2.353-7.843l12.548-4.313v-18.43H5.666v-7.45h10.587V5.081h7.45
			c2.089,0.263,2.218,1.047,0.392,2.353v16.861h10.979v7.45H24.096V47.43l7.843-3.137v4.705h60.387v6.274h-5.489v24.312l6.666-1.176
			v5.49l-6.666,1.176v9.02h-6.667v-8.236l-17.253,2.354c-1.047,2.354-1.96,2.219-2.745-0.393l-1.568-5.881l5.097-0.393V55.273
			h-6.666v39.604h-6.666v-9.02l-18.038,2.354c-1.568,2.354-2.616,2.219-3.137-0.393l-1.176-5.881l5.882-0.393V55.273h-2.745v-3.529
			l-7.059,3.529v32.938C24.096,92.391,22.264,94.484,18.606,94.484z M33.507,44.293l-1.176-5.882l10.587-0.393V12.923h-8.235V6.649
			h54.113v6.274H78.209v23.527l12.94-0.784v5.49l-12.94,0.784v4.706h-7.842v-4.313L35.86,44.293
			C34.548,45.862,33.764,45.862,33.507,44.293z M50.368,60.37v-5.097h-9.803v5.097H50.368z M50.368,70.565v-5.49h-9.803v5.49H50.368
			z M50.368,80.369v-5.098h-9.803v5.881L50.368,80.369z M70.367,17.629v-4.706H50.76v4.706H70.367z M70.367,27.432v-5.098H50.76
			v5.098H70.367z M70.367,36.843v-4.706H50.76v5.49L70.367,36.843z M80.169,60.37v-5.097h-9.803v5.097H80.169z M80.169,70.565v-5.49
			h-9.803v5.49H80.169z M80.169,80.369v-5.098h-9.803v5.881L80.169,80.369z"/>
		<path fill="#808080" d="M111.539,34.882V8.218h41.174v26.665h-16.471v6.274h23.137v6.274h-54.506v-6.274H128.4v-6.274h-8.627
			H111.539z M105.266,85.857c5.227-3.656,9.275-7.97,12.156-12.939l7.057,4.705c0.785,0.785,0,1.569-2.352,2.353
			c-2.354,3.922-6.146,7.842-11.371,11.764L105.266,85.857z M111.146,70.958V52.136h41.957v18.822h-16.469v18.039
			c0,4.178-2.096,6.273-6.273,6.273h-7.451l-1.176-7.451h5.49c1.041,0,1.568-0.525,1.568-1.568V70.958h-9.02H111.146z
			 M118.99,64.684h26.271V58.41H118.99V64.684z M119.381,12.923v6.274h25.488v-6.274H119.381z M119.381,23.903v6.274h25.488v-6.274
			H119.381z M144.869,73.311c3.922,2.353,7.059,4.84,9.412,7.45l-4.707,6.667c-2.094-3.139-5.098-6.012-9.018-8.627L144.869,73.311z
			 M154.281,87.035c16.205-7.58,27.969-16.47,35.291-26.665l6.666,6.667c0.258,1.311-0.527,1.703-2.354,1.176
			c-7.584,9.938-19.086,18.688-34.506,26.271L154.281,87.035z M155.85,26.647c10.195-4.442,18.949-10.844,26.271-19.214l6.666,6.666
			c0.521,1.312-0.393,1.704-2.744,1.176c-6.537,7.059-14.9,13.204-25.096,18.43L155.85,26.647z M192.709,39.588
			c0.258,1.311-0.527,1.703-2.354,1.176c-5.752,7.058-15.035,13.859-27.84,20.391l-5.098-7.059
			c13.332-6.531,23-13.461,29.018-20.782L192.709,39.588z"/>
	</g>
</g>
<g id="photography_copy" display="none">
	<g display="inline">
		<text transform="matrix(1 0 0 1 -1 86.25)" fill="#808080" font-family="'MS-UIGothic'" font-size="100.3837">旅行</text>
	</g>
</g>
</svg>
