<?xml version="1.0" encoding="utf-8"?>
<!-- Generator: Adobe Illustrator 16.0.0, SVG Export Plug-In . SVG Version: 6.00 Build 0)  -->
<!DOCTYPE svg PUBLIC "-//W3C//DTD SVG 1.1//EN" "http://www.w3.org/Graphics/SVG/1.1/DTD/svg11.dtd">
<svg version="1.1" id="Layer_1" xmlns="http://www.w3.org/2000/svg" xmlns:xlink="http://www.w3.org/1999/xlink" x="0px" y="0px"
	 width="200px" height="100px" viewBox="0 0 200 100" enable-background="new 0 0 200 100" xml:space="preserve">
<g>
	<path fill="#808080" d="M49.853,21.547v6.673h26.692v36.898h-7.851v-2.355H52.601c10.991,9.163,23.683,15.57,38.076,19.234
		l-3.925,9.42c-12.039-3.139-24.338-10.598-36.899-22.373V94.95h-7.851V70.613c-9.16,9.949-20.935,17.273-35.329,21.982
		l-3.925-8.242C18.45,79.384,30.88,72.183,40.04,62.763H23.161v3.533H15.31V28.22h26.692v-6.673H3.141v-7.459h38.861V5.06h7.458
		c2.093,0.262,2.225,1.047,0.393,2.355v6.673h38.076v7.459H49.853z M23.161,42.351h18.842V34.5H23.161V42.351z M23.161,56.483
		h18.842v-7.851H23.161V56.483z M49.853,42.351h18.842V34.5H49.853V42.351z M49.853,56.483h18.842v-7.851H49.853V56.483z"/>
</g>
<g>
	<path fill="#808080" d="M153.564,6.791c7.344,0,14.508,1.881,21.491,5.646c6.992,3.767,12.438,9.151,16.339,16.164
		c3.901,7.008,5.856,14.314,5.856,21.925c0,7.527-1.931,14.77-5.774,21.721s-9.225,12.348-16.159,16.188
		c-6.935,3.842-14.181,5.765-21.753,5.765c-7.564,0-14.818-1.923-21.744-5.765c-6.936-3.841-12.333-9.237-16.192-16.188
		c-3.861-6.951-5.799-14.193-5.799-21.721c0-7.61,1.963-14.917,5.889-21.925c3.917-7.013,9.371-12.397,16.354-16.164
		C139.073,8.672,146.237,6.791,153.564,6.791z M153.564,14.032c-6.133,0-12.112,1.574-17.926,4.719
		c-5.806,3.148-10.354,7.646-13.641,13.498c-3.279,5.851-4.923,11.943-4.923,18.277c0,6.293,1.618,12.327,4.841,18.102
		c3.223,5.773,7.729,10.271,13.526,13.493c5.789,3.227,11.833,4.837,18.122,4.837c6.297,0,12.349-1.61,18.139-4.837
		c5.789-3.222,10.288-7.72,13.493-13.493c3.206-5.774,4.809-11.809,4.809-18.102c0-6.334-1.636-12.427-4.891-18.277
		c-3.271-5.852-7.817-10.35-13.64-13.498C165.636,15.606,159.665,14.032,153.564,14.032z M167.582,57.592l7.131,2.086
		c-1.161,4.829-3.624,8.681-7.385,11.556c-3.771,2.878-8.334,4.313-13.698,4.313c-6.805,0-12.324-2.2-16.568-6.604
		c-4.252-4.399-6.378-10.501-6.378-18.303c0-5.099,0.964-9.527,2.903-13.293c1.929-3.766,4.685-6.604,8.25-8.517
		c3.573-1.91,7.655-2.867,12.251-2.867c5.136,0,9.404,1.227,12.807,3.68c3.394,2.449,5.708,5.782,6.951,9.989l-6.895,1.681
		c-1.161-2.858-2.87-5.05-5.128-6.574c-2.257-1.525-4.914-2.286-7.964-2.286c-4.44,0-8.098,1.582-10.976,4.747
		c-2.879,3.169-4.317,7.703-4.317,13.612c0,5.908,1.357,10.382,4.089,13.411c2.715,3.03,6.239,4.547,10.565,4.547
		c3.477,0,6.525-1.006,9.15-3.013C164.997,63.75,166.739,61.03,167.582,57.592z"/>
</g>
</svg>
